<svg xmlns="http://www.w3.org/2000/svg" viewBox="0 0 32 32" width="32" height="32"><circle cx="16" cy="16" r="16" fill="#1da1f2"/><path d="M25 11.5a6.7 6.7 0 0 1-1.9.5 3.3 3.3 0 0 0 1.4-1.8 6.6 6.6 0 0 1-2.1.8A3.3 3.3 0 0 0 16 10c-1.8 0-3.3 1.5-3.3 3.3 0 .3 0 .6.1.9-2.7-.1-5.1-1.4-6.7-3.4-.3.6-.5 1.3-.5 2 0 1.3.7 2.5 1.8 3.2a3.3 3.3 0 0 1-1.5-.4v.1c0 1.8 1.3 3.2 3 3.5-.3.1-.7.2-1 .2-.2 0-.3 0-.5-.1.3 1.1 1.3 2 2.5 2a6.6 6.6 0 0 1-4.1 1.4c-.3 0-.6 0-.8-.1A9.3 9.3 0 0 0 16 24c5.7 0 8.8-4.7 8.8-8.8v-.4A6.7 6.7 0 0 0 25 11.5z" fill="#fff"/></svg>
